<svg xmlns="http://www.w3.org/2000/svg" xml:space="preserve" width="206.44912979" height="166.04025985" class="icon-icon-0" data-fill-palette-color="accent" viewBox="0 9.78600025 100.00034332 80.42699432"><path fill="#dadce0" d="M49.942 52.994c13.552-.488 27.103-.977 40.653-1.465-2.527-4.177-3.159-7.831-7.989-8.461-7.229-.94-14.458-1.883-21.688-2.826-14.023-1.827-28.05-3.654-42.075-5.48 1.258 2.03 20.881 18.599 31.099 18.232zM0 9.786c4.391 7.257 26.615 23.072 32.953 23.886 17.33 2.231 34.657 4.46 51.986 6.688-3.393-5.607-4.18-9.35-10.312-10.959-8.904-2.341-17.812-4.683-26.717-7.023C31.94 18.182 15.97 13.984 0 9.786zM63.108 66.207c10.413-2.219 20.826-4.439 31.241-6.66-2.028-3.346-2.034-5.359-5.827-5.189-6.158.273-12.314.549-18.471.822-11.343.506-22.686 1.014-34.028 1.518 1.275 1.366 18.917 11.249 27.085 9.509zM87.682 90.213c5.725-3.719 7.262-7.721 10.519-13.807 3.651-6.824 1.257-7.844-2.821-14.596-.417-.688-5.842.232-6.453.904-.745.818-.248 5.455-.294 6.496-.318 7.001-.635 14.003-.951 21.003zM86.35 63.447c-3.795.809-8.604.191-9.572 4.229-1.373 5.736-2.746 11.475-4.12 17.211 9.246-2.209 13.37-13.305 13.692-21.44zM74.666 66.121c-9.148 1.953-8.956 4.611-12.879 13.18 6.22-.59 12.024-7.36 12.879-13.18z" data-fill-palette-color="accent"/></svg>